<svg width="127" height="126" viewBox="0 0 127 126" fill="none" xmlns="http://www.w3.org/2000/svg">
<circle cx="63.9907" cy="63" r="63" fill="black"/>
<path d="M69.8669 73.4926C62.1027 70.0437 55.9285 63.5511 52.659 55.3974L61.7256 45.8686L45.0324 28.3413L36.5765 37.2099C35.1098 38.7574 33.9502 40.5946 33.1648 42.6154C32.3793 44.6361 31.9836 46.8002 32.0005 48.9824C32.0005 69.2598 56.6723 95.1437 76.0002 95.1437C78.08 95.1628 80.1427 94.7482 82.0685 93.9241C83.9944 93.1 85.745 91.8827 87.2187 90.3429L95.6747 81.4716L78.9681 63.9443L69.8669 73.4926ZM83.4454 86.387C82.4662 87.4055 81.3036 88.2095 80.0254 88.7522C78.7473 89.2949 77.379 89.5656 76.0002 89.5484C59.379 89.5484 37.3338 66.4202 37.3338 48.9824C37.3181 47.5355 37.5764 46.0998 38.0936 44.7585C38.6109 43.4172 39.3769 42.1969 40.3471 41.1686L45.0324 36.2531L54.1977 45.8686L46.3711 54.0797L47.0244 55.7975C48.9477 61.195 51.9544 66.0958 55.8407 70.1678C59.7271 74.2397 64.4023 77.3877 69.5496 79.3985L71.1655 80.0448L78.9681 71.856L88.1334 81.4716L83.4454 86.387ZM69.3336 33.5953V28C76.4036 28.0081 83.1818 30.9583 88.181 36.2031C93.1802 41.448 95.9922 48.5592 96 55.9765H90.6667C90.6604 50.0427 88.4107 44.3538 84.4114 40.158C80.412 35.9621 74.9895 33.602 69.3336 33.5953V33.5953ZM69.3336 44.7859V39.1906C73.5757 39.1951 77.6428 40.965 80.6425 44.112C83.6421 47.259 85.3292 51.526 85.3334 55.9765H80.0001C80.0001 53.0086 78.8763 50.1622 76.876 48.0636C74.8756 45.9649 72.1625 44.7859 69.3336 44.7859Z" fill="#F7D401"/>
</svg>
