<svg width="1920" height="1141" viewBox="0 0 1920 1141" fill="none" xmlns="http://www.w3.org/2000/svg">
<path d="M-8 198.072V0.553711L1965 18.5986V94.6796C1965 94.6796 1976.03 247.018 1929 242.452C1897.21 239.367 1879.91 174.565 1850.35 162.957C1750.08 123.585 1827.07 1028.66 1743.5 1134C1659.93 1239.34 1709.39 38.3386 1582.32 74.684C1520.84 92.2697 1548.69 242.452 1462.07 242.452C1375.44 242.452 1394.96 88.7216 1332.13 99.0689C1269.77 109.34 1297.08 210.255 1235.32 223.432C1159.43 239.621 1162.23 99.9574 1084.49 99.0689C1022.24 98.3575 1043.21 137.597 964.742 150.765C908.751 160.16 891.138 88.332 834.296 87.8518C744.915 87.0967 867.532 255.43 793.531 303.415C690.796 370.032 708.196 75.1891 584.104 74.684C473.862 74.2352 481.586 269.793 372.638 253.669C286.401 240.907 303.62 116.336 218.243 99.0689C127.052 80.6259 -8 198.072 -8 198.072Z" fill="url(#paint0_linear_1_7)"/>
<defs>
<linearGradient id="paint0_linear_1_7" x1="1098.5" y1="499.482" x2="1089.94" y2="1306.65" gradientUnits="userSpaceOnUse">
<stop stop-color="#F2F2F2"/>
<stop offset="0.755208" stop-color="#F4EDDB"/>
</linearGradient>
</defs>
</svg>
